<svg xmlns="http://www.w3.org/2000/svg" viewBox="0 0 167 167"><defs><style>.cls-1{fill:#21b2a6;}.cls-2{fill:#2e3842;}.cls-3{fill:#fff;}</style></defs><title>Asset 4</title><g id="Layer_2" data-name="Layer 2"><g id="Layer_1-2" data-name="Layer 1"><rect class="cls-1" width="167" height="167"/><polygon class="cls-2" points="167 167 0 167 167 0 167 167"/><path class="cls-3" d="M43,133.22s13.79-8.16,29-10.48c17.88-2.72,28.3-.41,28.3-.41s10.24,1.91,16.84,5,7.47,3.07,7.47,3.07-8.33-8.42-18.87-11.81c-6.48-2.08-9.2-2.72-19.16-2.6-9.39.11-15.8,1.22-20,2.49C48.71,124,43,133.22,43,133.22Z"/><path class="cls-3" d="M61.77,132.64A65,65,0,0,1,78,128.42a72.44,72.44,0,0,1,16,0,83.66,83.66,0,0,1,10.11,1.9c4.05,1.16,9.72,3.24,9.72,3.24a19,19,0,0,0-5.44-4.4,37.22,37.22,0,0,0-11.34-3.59,56.92,56.92,0,0,0-10.76-1,45.61,45.61,0,0,0-11.92,1.56,35.7,35.7,0,0,0-10,4.05A24.5,24.5,0,0,0,61.77,132.64Z"/><path class="cls-3" d="M97.65,112.73s-4.05-8.91-1-18.17,17.25-20.14,17.25-20.14-1.5,1.5-1,2.08,4.63-3.82,11.46-6.48,15.4-2.89,15.4-2.89-1.5.46-1.39,1.27,8.1-.46,10.53-.12,8.68.46,10.77-.46a13.29,13.29,0,0,0,3.94-3.13S162.83,73.25,162,76s-.12,1.27-2.55,10.3c0,0-1.85,4.63-2.55,5.32s1.85.46,2.55-.35-1.62,7.64-5.32,11.34a74.92,74.92,0,0,1-9.38,7.87c-.71.41-1.5.69-.46,1.39a2.9,2.9,0,0,0,1.85.58,61.84,61.84,0,0,1-21.42,4.28c-12.15.23-19.68-.46-20.84-.69l-2.2-.81s4.51-10.19,9.72-14.93,7.76-7.52,7.76-7.52a79.66,79.66,0,0,0-11,6.83c-4.37,3.45-4.28,3.36-6.6,6C97.24,110.67,97.65,112.73,97.65,112.73Z"/><path class="cls-3" d="M80.41,109s5.44-19-7.76-41c0,0-8.68-16-21.65-19.45,0,0,1,1.5.81,2.43s-7.06-3.47-12.62-4.28c-5-.74-8.68-.58-11-.93a19.73,19.73,0,0,1-4.51-2s.69,1.85.12,2.2c-1,.59-7.18-.58-7.18-.58a16.22,16.22,0,0,1-7.76-5s-2.32,10.3.69,16.78c0,0,2.78,4.4,1.27,3.94a10.61,10.61,0,0,1-2.08-.81s0,3.24,3.24,10.77-.46,4.4-.46,4.4A44.5,44.5,0,0,0,21.95,95.36c8.33,8.91,6.6,6.71,6.6,6.71s.46,1.85-1.39,1.39,5.21,4.75,5.21,4.75a45,45,0,0,0,14.93,3.36c9,.58,19.91.35,22,1.16l5,1.5a29,29,0,0,0-6.37-17.71L61.77,89s6.6,4.37,8.68,6.83c1.27,1.5,4.51,4.75,6.14,8.33s3.13,6.95,3.13,6.95Z"/><path class="cls-3" d="M90.83,91.31A42.69,42.69,0,0,1,104.14,79c8.68-5.09,15.63-19.91,15.63-19.91s-2,1.27-2.2.46.81-2.55.69-7.64a38.31,38.31,0,0,0-.93-8.68,19.76,19.76,0,0,0-1.16-3.7s0,2.55-1,2.2-2-4.82-2-6.37c0-1.27.12-7.06.58-8.33,0,0-8.33,2.89-12.62,7.41s-4.56,4.52-5,3.82.12-2,.12-2-6.14,5.09-9,10.88-2.89,6.95-3.36,5.32-.23-2.08-.23-2.08-2.32,3.36-3,13-.46,18.41,6,28.59a58.34,58.34,0,0,1,3-14.7c2.55-6.83,4.86-10,5.09-10.19A75.67,75.67,0,0,0,89.9,81.24c-2.43,9.72-1,12.85-1,12.85Z"/></g></g></svg>